<svg width="1440" height="900" viewBox="0 0 1440 900" fill="none" xmlns="http://www.w3.org/2000/svg">
<g clip-path="url(#clip0_12_2935)">
<rect width="1440" height="1024" transform="translate(0 -62)" fill="#46A67E"/>
<path fill-rule="evenodd" clip-rule="evenodd" d="M-134.153 -18.703L-95.5837 19.866L-57.1612 -18.5565L-56.6555 -18.0508L-56.0033 -18.703L-17.4343 19.866L20.9882 -18.5565L21.2654 -18.2793L21.6892 -18.703L60.2581 19.8659L98.6805 -18.5565L98.7293 -18.5077L98.9247 -18.703L137.494 19.866L175.916 -18.5565L175.965 -18.5078L176.16 -18.703L214.729 19.866L253.152 -18.5565L253.2 -18.5079L253.395 -18.703L291.964 19.8659L330.387 -18.5565L330.435 -18.5077L330.631 -18.703L369.2 19.8659L407.622 -18.5565L407.671 -18.5077L407.866 -18.703L446.435 19.8659L484.857 -18.5565L484.906 -18.5078L485.101 -18.703L523.67 19.8659L562.093 -18.5565L562.142 -18.5075L562.337 -18.703L600.906 19.8659L639.328 -18.5565L639.377 -18.5078L639.572 -18.703L678.141 19.8659L716.564 -18.5565L716.612 -18.5078L716.807 -18.703L755.376 19.8659L793.799 -18.5565L793.848 -18.5075L794.043 -18.703L832.612 19.8659L871.034 -18.5565L871.083 -18.5078L871.278 -18.703L909.847 19.8659L948.27 -18.5565L948.318 -18.5076L948.514 -18.703L987.083 19.8659L1025.51 -18.5565L1025.55 -18.5076L1025.75 -18.703L1064.32 19.8659L1102.74 -18.5565L1102.79 -18.5078L1102.98 -18.703L1141.55 19.8659L1179.98 -18.5565L1180.02 -18.5076L1180.22 -18.703L1218.79 19.8659L1257.21 -18.5565L1257.26 -18.5074L1257.46 -18.703L1296.02 19.8659L1334.45 -18.5565L1334.5 -18.5078L1334.69 -18.703L1373.26 19.8659L1411.68 -18.5565L1411.73 -18.5078L1411.93 -18.703L1450.49 19.8659L1488.92 -18.5565L1488.97 -18.5078L1489.16 -18.703L1527.73 19.8659L1566.15 -18.5565L1571 -13.7091L1527.7 29.594L1522.85 24.7466L1522.88 24.7132L1489.11 -9.05693L1450.46 29.594L1445.61 24.7466L1445.65 24.7132L1411.88 -9.05693L1373.23 29.594L1368.38 24.7466L1368.41 24.7132L1334.64 -9.05693L1295.99 29.594L1291.14 24.7466L1291.18 24.7132L1257.41 -9.0573L1218.76 29.594L1213.91 24.7466L1213.94 24.7132L1180.17 -9.05711L1141.52 29.594L1136.67 24.7466L1136.71 24.7132L1102.94 -9.05693L1064.28 29.594L1059.44 24.7466L1059.47 24.7132L1025.7 -9.05711L987.049 29.594L982.202 24.7466L982.235 24.7132L948.465 -9.05717L909.814 29.594L904.966 24.7466L905 24.7132L871.23 -9.05699L832.579 29.594L827.731 24.7466L827.765 24.7132L793.994 -9.05724L755.343 29.594L750.496 24.7466L750.529 24.7132L716.759 -9.05696L678.108 29.594L673.26 24.7466L673.294 24.7132L639.524 -9.05702L600.873 29.594L596.025 24.7466L596.059 24.7132L562.288 -9.05724L523.637 29.594L518.789 24.7466L518.823 24.7132L485.053 -9.05696L446.402 29.594L441.554 24.7466L441.588 24.7132L407.817 -9.05714L369.166 29.594L364.319 24.7466L364.352 24.7132L330.582 -9.05713L291.931 29.594L287.083 24.7466L287.117 24.7132L253.347 -9.05688L214.696 29.594L209.848 24.7466L209.882 24.7133L176.111 -9.05702L137.46 29.594L132.613 24.7466L132.646 24.7133L98.8758 -9.05713L60.2247 29.594L55.3773 24.7466L55.4107 24.7132L21.4119 -9.28551L-17.4676 29.594L-22.3149 24.7466L-22.2816 24.7133L-56.509 -9.51399L-95.617 29.594L-100.464 24.7466L-100.431 24.7133L-139 -13.8556L-134.153 -18.703Z" fill="#459E79"/>
<path fill-rule="evenodd" clip-rule="evenodd" d="M-134.153 49.594L-95.5837 88.163L-57.1612 49.7405L-56.6555 50.2462L-56.0033 49.594L-17.4343 88.163L20.9882 49.7405L21.2654 50.0177L21.6892 49.594L60.2581 88.1629L98.6805 49.7405L98.7293 49.7893L98.9247 49.594L137.494 88.163L175.916 49.7405L175.965 49.7892L176.16 49.594L214.729 88.163L253.152 49.7405L253.2 49.7891L253.395 49.594L291.964 88.1629L330.387 49.7405L330.435 49.7893L330.631 49.594L369.2 88.1629L407.622 49.7405L407.671 49.7893L407.866 49.594L446.435 88.1629L484.857 49.7405L484.906 49.7892L485.101 49.594L523.67 88.1629L562.093 49.7405L562.142 49.7895L562.337 49.594L600.906 88.1629L639.328 49.7405L639.377 49.7892L639.572 49.594L678.141 88.1629L716.564 49.7405L716.612 49.7892L716.807 49.594L755.376 88.1629L793.799 49.7405L793.848 49.7895L794.043 49.594L832.612 88.1629L871.034 49.7405L871.083 49.7892L871.278 49.594L909.847 88.1629L948.27 49.7405L948.318 49.7894L948.514 49.594L987.083 88.1629L1025.51 49.7405L1025.55 49.7894L1025.75 49.594L1064.32 88.1629L1102.74 49.7405L1102.79 49.7892L1102.98 49.594L1141.55 88.1629L1179.98 49.7405L1180.02 49.7894L1180.22 49.594L1218.79 88.1629L1257.21 49.7405L1257.26 49.7896L1257.46 49.594L1296.02 88.1629L1334.45 49.7405L1334.5 49.7892L1334.69 49.594L1373.26 88.1629L1411.68 49.7405L1411.73 49.7892L1411.93 49.594L1450.49 88.1629L1488.92 49.7405L1488.97 49.7892L1489.16 49.594L1527.73 88.1629L1566.15 49.7405L1571 54.5878L1527.7 97.891L1522.85 93.0436L1522.88 93.0102L1489.11 59.2401L1450.46 97.891L1445.61 93.0436L1445.65 93.0102L1411.88 59.2401L1373.23 97.891L1368.38 93.0436L1368.41 93.0102L1334.64 59.2401L1295.99 97.891L1291.14 93.0436L1291.18 93.0102L1257.41 59.2397L1218.76 97.891L1213.91 93.0436L1213.94 93.0102L1180.17 59.2399L1141.52 97.891L1136.67 93.0436L1136.71 93.0102L1102.94 59.2401L1064.28 97.891L1059.44 93.0436L1059.47 93.0102L1025.7 59.2399L987.049 97.891L982.202 93.0436L982.235 93.0102L948.465 59.2398L909.814 97.891L904.966 93.0436L905 93.0102L871.23 59.24L832.579 97.891L827.731 93.0436L827.765 93.0102L793.994 59.2398L755.343 97.891L750.496 93.0436L750.529 93.0102L716.759 59.24L678.108 97.891L673.26 93.0436L673.294 93.0102L639.524 59.24L600.873 97.891L596.025 93.0436L596.059 93.0102L562.288 59.2398L523.637 97.891L518.789 93.0436L518.823 93.0102L485.053 59.24L446.402 97.891L441.554 93.0436L441.588 93.0102L407.817 59.2399L369.166 97.891L364.319 93.0436L364.352 93.0102L330.582 59.2399L291.931 97.891L287.083 93.0436L287.117 93.0102L253.347 59.2401L214.696 97.891L209.848 93.0436L209.882 93.0103L176.111 59.24L137.46 97.891L132.613 93.0436L132.646 93.0103L98.8758 59.2399L60.2247 97.891L55.3773 93.0436L55.4107 93.0102L21.4119 59.0115L-17.4676 97.891L-22.3149 93.0436L-22.2816 93.0103L-56.509 58.783L-95.617 97.891L-100.464 93.0436L-100.431 93.0103L-139 54.4414L-134.153 49.594Z" fill="#459E79"/>
<path fill-rule="evenodd" clip-rule="evenodd" d="M-134.153 117.891L-95.5837 156.46L-57.1612 118.037L-56.6555 118.543L-56.0033 117.891L-17.4343 156.46L20.9882 118.037L21.2654 118.315L21.6892 117.891L60.2581 156.46L98.6805 118.037L98.7293 118.086L98.9247 117.891L137.494 156.46L175.916 118.037L175.965 118.086L176.16 117.891L214.729 156.46L253.152 118.037L253.2 118.086L253.395 117.891L291.964 156.46L330.387 118.037L330.435 118.086L330.631 117.891L369.2 156.46L407.622 118.037L407.671 118.086L407.866 117.891L446.435 156.46L484.857 118.037L484.906 118.086L485.101 117.891L523.67 156.46L562.093 118.037L562.142 118.086L562.337 117.891L600.906 156.46L639.328 118.037L639.377 118.086L639.572 117.891L678.141 156.46L716.564 118.037L716.612 118.086L716.807 117.891L755.376 156.46L793.799 118.037L793.848 118.086L794.043 117.891L832.612 156.46L871.034 118.037L871.083 118.086L871.278 117.891L909.847 156.46L948.27 118.037L948.318 118.086L948.514 117.891L987.083 156.46L1025.51 118.037L1025.55 118.086L1025.75 117.891L1064.32 156.46L1102.74 118.037L1102.79 118.086L1102.98 117.891L1141.55 156.46L1179.98 118.037L1180.02 118.086L1180.22 117.891L1218.79 156.46L1257.21 118.037L1257.26 118.087L1257.46 117.891L1296.02 156.46L1334.45 118.037L1334.5 118.086L1334.69 117.891L1373.26 156.46L1411.68 118.037L1411.73 118.086L1411.93 117.891L1450.49 156.46L1488.92 118.037L1488.97 118.086L1489.16 117.891L1527.73 156.46L1566.15 118.037L1571 122.885L1527.7 166.188L1522.85 161.341L1522.88 161.307L1489.11 127.537L1450.46 166.188L1445.61 161.341L1445.65 161.307L1411.88 127.537L1373.23 166.188L1368.38 161.341L1368.41 161.307L1334.64 127.537L1295.99 166.188L1291.14 161.341L1291.18 161.307L1257.41 127.537L1218.76 166.188L1213.91 161.341L1213.94 161.307L1180.17 127.537L1141.52 166.188L1136.67 161.341L1136.71 161.307L1102.94 127.537L1064.28 166.188L1059.44 161.341L1059.47 161.307L1025.7 127.537L987.049 166.188L982.202 161.341L982.235 161.307L948.465 127.537L909.814 166.188L904.966 161.341L905 161.307L871.23 127.537L832.579 166.188L827.731 161.341L827.765 161.307L793.994 127.537L755.343 166.188L750.496 161.341L750.529 161.307L716.759 127.537L678.108 166.188L673.26 161.341L673.294 161.307L639.524 127.537L600.873 166.188L596.025 161.341L596.059 161.307L562.288 127.537L523.637 166.188L518.789 161.341L518.823 161.307L485.053 127.537L446.402 166.188L441.554 161.341L441.588 161.307L407.817 127.537L369.166 166.188L364.319 161.341L364.352 161.307L330.582 127.537L291.931 166.188L287.083 161.341L287.117 161.307L253.347 127.537L214.696 166.188L209.848 161.341L209.882 161.307L176.111 127.537L137.46 166.188L132.613 161.341L132.646 161.307L98.8758 127.537L60.2247 166.188L55.3773 161.341L55.4107 161.307L21.4119 127.308L-17.4676 166.188L-22.3149 161.341L-22.2816 161.307L-56.509 127.08L-95.617 166.188L-100.464 161.341L-100.431 161.307L-139 122.738L-134.153 117.891Z" fill="#459E79"/>
<path fill-rule="evenodd" clip-rule="evenodd" d="M-134.153 186.188L-95.5837 224.757L-57.1612 186.334L-56.6555 186.84L-56.0033 186.188L-17.4343 224.757L20.9882 186.334L21.2654 186.612L21.6892 186.188L60.2581 224.757L98.6805 186.334L98.7293 186.383L98.9247 186.188L137.494 224.757L175.916 186.334L175.965 186.383L176.16 186.188L214.729 224.757L253.152 186.334L253.2 186.383L253.395 186.188L291.964 224.757L330.387 186.334L330.435 186.383L330.631 186.188L369.2 224.757L407.622 186.334L407.671 186.383L407.866 186.188L446.435 224.757L484.857 186.334L484.906 186.383L485.101 186.188L523.67 224.757L562.093 186.334L562.142 186.383L562.337 186.188L600.906 224.757L639.328 186.334L639.377 186.383L639.572 186.188L678.141 224.757L716.564 186.334L716.612 186.383L716.807 186.188L755.376 224.757L793.799 186.334L793.848 186.383L794.043 186.188L832.612 224.757L871.034 186.334L871.083 186.383L871.278 186.188L909.847 224.757L948.27 186.334L948.318 186.383L948.514 186.188L987.083 224.757L1025.51 186.334L1025.55 186.383L1025.75 186.188L1064.32 224.757L1102.74 186.334L1102.79 186.383L1102.98 186.188L1141.55 224.757L1179.98 186.334L1180.02 186.383L1180.22 186.188L1218.79 224.757L1257.21 186.334L1257.26 186.384L1257.46 186.188L1296.02 224.757L1334.45 186.334L1334.5 186.383L1334.69 186.188L1373.26 224.757L1411.68 186.334L1411.73 186.383L1411.93 186.188L1450.49 224.757L1488.92 186.334L1488.97 186.383L1489.16 186.188L1527.73 224.757L1566.15 186.334L1571 191.182L1527.7 234.485L1522.85 229.638L1522.88 229.604L1489.11 195.834L1450.46 234.485L1445.61 229.638L1445.65 229.604L1411.88 195.834L1373.23 234.485L1368.38 229.638L1368.41 229.604L1334.64 195.834L1295.99 234.485L1291.14 229.638L1291.18 229.604L1257.41 195.834L1218.76 234.485L1213.91 229.638L1213.94 229.604L1180.17 195.834L1141.52 234.485L1136.67 229.638L1136.71 229.604L1102.94 195.834L1064.28 234.485L1059.44 229.638L1059.47 229.604L1025.7 195.834L987.049 234.485L982.202 229.638L982.235 229.604L948.465 195.834L909.814 234.485L904.966 229.638L905 229.604L871.23 195.834L832.579 234.485L827.731 229.638L827.765 229.604L793.994 195.834L755.343 234.485L750.496 229.638L750.529 229.604L716.759 195.834L678.108 234.485L673.26 229.638L673.294 229.604L639.524 195.834L600.873 234.485L596.025 229.638L596.059 229.604L562.288 195.834L523.637 234.485L518.789 229.638L518.823 229.604L485.053 195.834L446.402 234.485L441.554 229.638L441.588 229.604L407.817 195.834L369.166 234.485L364.319 229.638L364.352 229.604L330.582 195.834L291.931 234.485L287.083 229.638L287.117 229.604L253.347 195.834L214.696 234.485L209.848 229.638L209.882 229.604L176.111 195.834L137.46 234.485L132.613 229.638L132.646 229.604L98.8758 195.834L60.2247 234.485L55.3773 229.638L55.4107 229.604L21.4119 195.605L-17.4676 234.485L-22.3149 229.638L-22.2816 229.604L-56.509 195.377L-95.617 234.485L-100.464 229.638L-100.431 229.604L-139 191.035L-134.153 186.188Z" fill="#459E79"/>
<path fill-rule="evenodd" clip-rule="evenodd" d="M-134.153 254.485L-95.5837 293.054L-57.1612 254.631L-56.6555 255.137L-56.0033 254.485L-17.4343 293.054L20.9882 254.631L21.2654 254.909L21.6892 254.485L60.2581 293.054L98.6805 254.631L98.7293 254.68L98.9247 254.485L137.494 293.054L175.916 254.631L175.965 254.68L176.16 254.485L214.729 293.054L253.152 254.631L253.2 254.68L253.395 254.485L291.964 293.054L330.387 254.631L330.435 254.68L330.631 254.485L369.2 293.054L407.622 254.631L407.671 254.68L407.866 254.485L446.435 293.054L484.857 254.631L484.906 254.68L485.101 254.485L523.67 293.054L562.093 254.631L562.142 254.68L562.337 254.485L600.906 293.054L639.328 254.631L639.377 254.68L639.572 254.485L678.141 293.054L716.564 254.631L716.612 254.68L716.807 254.485L755.376 293.054L793.799 254.631L793.848 254.68L794.043 254.485L832.612 293.054L871.034 254.631L871.083 254.68L871.278 254.485L909.847 293.054L948.27 254.631L948.318 254.68L948.514 254.485L987.083 293.054L1025.51 254.631L1025.55 254.68L1025.75 254.485L1064.32 293.054L1102.74 254.631L1102.79 254.68L1102.98 254.485L1141.55 293.054L1179.98 254.631L1180.02 254.68L1180.22 254.485L1218.79 293.054L1257.21 254.631L1257.26 254.681L1257.46 254.485L1296.02 293.054L1334.45 254.631L1334.5 254.68L1334.69 254.485L1373.26 293.054L1411.68 254.631L1411.73 254.68L1411.93 254.485L1450.49 293.054L1488.92 254.631L1488.97 254.68L1489.16 254.485L1527.73 293.054L1566.15 254.631L1571 259.479L1527.7 302.782L1522.85 297.935L1522.88 297.901L1489.11 264.131L1450.46 302.782L1445.61 297.935L1445.65 297.901L1411.88 264.131L1373.23 302.782L1368.38 297.935L1368.41 297.901L1334.64 264.131L1295.99 302.782L1291.14 297.935L1291.18 297.901L1257.41 264.131L1218.76 302.782L1213.91 297.935L1213.94 297.901L1180.17 264.131L1141.52 302.782L1136.67 297.935L1136.71 297.901L1102.94 264.131L1064.28 302.782L1059.44 297.935L1059.47 297.901L1025.7 264.131L987.049 302.782L982.202 297.935L982.235 297.901L948.465 264.131L909.814 302.782L904.966 297.935L905 297.901L871.23 264.131L832.579 302.782L827.731 297.935L827.765 297.901L793.994 264.131L755.343 302.782L750.496 297.935L750.529 297.901L716.759 264.131L678.108 302.782L673.26 297.935L673.294 297.901L639.524 264.131L600.873 302.782L596.025 297.935L596.059 297.901L562.288 264.131L523.637 302.782L518.789 297.935L518.823 297.901L485.053 264.131L446.402 302.782L441.554 297.935L441.588 297.901L407.817 264.131L369.166 302.782L364.319 297.935L364.352 297.901L330.582 264.131L291.931 302.782L287.083 297.935L287.117 297.901L253.347 264.131L214.696 302.782L209.848 297.935L209.882 297.901L176.111 264.131L137.46 302.782L132.613 297.935L132.646 297.901L98.8758 264.131L60.2247 302.782L55.3773 297.935L55.4107 297.901L21.4119 263.902L-17.4676 302.782L-22.3149 297.935L-22.2816 297.901L-56.509 263.674L-95.617 302.782L-100.464 297.935L-100.431 297.901L-139 259.332L-134.153 254.485Z" fill="#459E79"/>
<path fill-rule="evenodd" clip-rule="evenodd" d="M-134.153 322.782L-95.5837 361.351L-57.1612 322.928L-56.6555 323.434L-56.0033 322.782L-17.4343 361.351L20.9882 322.928L21.2654 323.206L21.6892 322.782L60.2581 361.351L98.6805 322.928L98.7293 322.977L98.9247 322.782L137.494 361.351L175.916 322.928L175.965 322.977L176.16 322.782L214.729 361.351L253.152 322.928L253.2 322.977L253.395 322.782L291.964 361.351L330.387 322.928L330.435 322.977L330.631 322.782L369.2 361.351L407.622 322.928L407.671 322.977L407.866 322.782L446.435 361.351L484.857 322.928L484.906 322.977L485.101 322.782L523.67 361.351L562.093 322.928L562.142 322.977L562.337 322.782L600.906 361.351L639.328 322.928L639.377 322.977L639.572 322.782L678.141 361.351L716.564 322.928L716.612 322.977L716.807 322.782L755.376 361.351L793.799 322.928L793.848 322.977L794.043 322.782L832.612 361.351L871.034 322.928L871.083 322.977L871.278 322.782L909.847 361.351L948.27 322.928L948.318 322.977L948.514 322.782L987.083 361.351L1025.51 322.928L1025.55 322.977L1025.75 322.782L1064.32 361.351L1102.74 322.928L1102.79 322.977L1102.98 322.782L1141.55 361.351L1179.98 322.928L1180.02 322.977L1180.22 322.782L1218.79 361.351L1257.21 322.928L1257.26 322.978L1257.46 322.782L1296.02 361.351L1334.45 322.928L1334.5 322.977L1334.69 322.782L1373.26 361.351L1411.68 322.928L1411.73 322.977L1411.93 322.782L1450.49 361.351L1488.92 322.928L1488.97 322.977L1489.16 322.782L1527.73 361.351L1566.15 322.928L1571 327.776L1527.7 371.079L1522.85 366.232L1522.88 366.198L1489.11 332.428L1450.46 371.079L1445.61 366.232L1445.65 366.198L1411.88 332.428L1373.23 371.079L1368.38 366.232L1368.41 366.198L1334.64 332.428L1295.99 371.079L1291.14 366.232L1291.18 366.198L1257.41 332.428L1218.76 371.079L1213.91 366.232L1213.94 366.198L1180.17 332.428L1141.52 371.079L1136.67 366.232L1136.71 366.198L1102.94 332.428L1064.28 371.079L1059.44 366.232L1059.47 366.198L1025.7 332.428L987.049 371.079L982.202 366.232L982.235 366.198L948.465 332.428L909.814 371.079L904.966 366.232L905 366.198L871.23 332.428L832.579 371.079L827.731 366.232L827.765 366.198L793.994 332.428L755.343 371.079L750.496 366.232L750.529 366.198L716.759 332.428L678.108 371.079L673.26 366.232L673.294 366.198L639.524 332.428L600.873 371.079L596.025 366.232L596.059 366.198L562.288 332.428L523.637 371.079L518.789 366.232L518.823 366.198L485.053 332.428L446.402 371.079L441.554 366.232L441.588 366.198L407.817 332.428L369.166 371.079L364.319 366.232L364.352 366.198L330.582 332.428L291.931 371.079L287.083 366.232L287.117 366.198L253.347 332.428L214.696 371.079L209.848 366.232L209.882 366.198L176.111 332.428L137.46 371.079L132.613 366.232L132.646 366.198L98.8758 332.428L60.2247 371.079L55.3773 366.232L55.4107 366.198L21.4119 332.199L-17.4676 371.079L-22.3149 366.232L-22.2816 366.198L-56.509 331.971L-95.617 371.079L-100.464 366.232L-100.431 366.198L-139 327.629L-134.153 322.782Z" fill="#459E79"/>
<path fill-rule="evenodd" clip-rule="evenodd" d="M-134.153 391.079L-95.5837 429.648L-57.1612 391.225L-56.6555 391.731L-56.0033 391.079L-17.4343 429.648L20.9882 391.225L21.2654 391.503L21.6892 391.079L60.2581 429.648L98.6805 391.225L98.7293 391.274L98.9247 391.079L137.494 429.648L175.916 391.225L175.965 391.274L176.16 391.079L214.729 429.648L253.152 391.225L253.2 391.274L253.395 391.079L291.964 429.648L330.387 391.225L330.435 391.274L330.631 391.079L369.2 429.648L407.622 391.225L407.671 391.274L407.866 391.079L446.435 429.648L484.857 391.225L484.906 391.274L485.101 391.079L523.67 429.648L562.093 391.225L562.142 391.274L562.337 391.079L600.906 429.648L639.328 391.225L639.377 391.274L639.572 391.079L678.141 429.648L716.564 391.225L716.612 391.274L716.807 391.079L755.376 429.648L793.799 391.225L793.848 391.274L794.043 391.079L832.612 429.648L871.034 391.225L871.083 391.274L871.278 391.079L909.847 429.648L948.27 391.225L948.318 391.274L948.514 391.079L987.083 429.648L1025.51 391.225L1025.55 391.274L1025.75 391.079L1064.32 429.648L1102.74 391.225L1102.79 391.274L1102.98 391.079L1141.55 429.648L1179.98 391.225L1180.02 391.274L1180.22 391.079L1218.79 429.648L1257.21 391.225L1257.26 391.275L1257.46 391.079L1296.02 429.648L1334.45 391.225L1334.5 391.274L1334.69 391.079L1373.26 429.648L1411.68 391.225L1411.73 391.274L1411.93 391.079L1450.49 429.648L1488.92 391.225L1488.97 391.274L1489.16 391.079L1527.73 429.648L1566.15 391.225L1571 396.073L1527.7 439.376L1522.85 434.529L1522.88 434.495L1489.11 400.725L1450.46 439.376L1445.61 434.529L1445.65 434.495L1411.88 400.725L1373.23 439.376L1368.38 434.529L1368.41 434.495L1334.64 400.725L1295.99 439.376L1291.14 434.529L1291.18 434.495L1257.41 400.725L1218.76 439.376L1213.91 434.529L1213.94 434.495L1180.17 400.725L1141.52 439.376L1136.67 434.529L1136.71 434.495L1102.94 400.725L1064.28 439.376L1059.44 434.529L1059.47 434.495L1025.7 400.725L987.049 439.376L982.202 434.529L982.235 434.495L948.465 400.725L909.814 439.376L904.966 434.529L905 434.495L871.23 400.725L832.579 439.376L827.731 434.529L827.765 434.495L793.994 400.725L755.343 439.376L750.496 434.529L750.529 434.495L716.759 400.725L678.108 439.376L673.26 434.529L673.294 434.495L639.524 400.725L600.873 439.376L596.025 434.529L596.059 434.495L562.288 400.725L523.637 439.376L518.789 434.529L518.823 434.495L485.053 400.725L446.402 439.376L441.554 434.529L441.588 434.495L407.817 400.725L369.166 439.376L364.319 434.529L364.352 434.495L330.582 400.725L291.931 439.376L287.083 434.529L287.117 434.495L253.347 400.725L214.696 439.376L209.848 434.529L209.882 434.495L176.111 400.725L137.46 439.376L132.613 434.529L132.646 434.495L98.8758 400.725L60.2247 439.376L55.3773 434.529L55.4107 434.495L21.4119 400.496L-17.4676 439.376L-22.3149 434.529L-22.2816 434.495L-56.509 400.268L-95.617 439.376L-100.464 434.529L-100.431 434.495L-139 395.926L-134.153 391.079Z" fill="#459E79"/>
<path fill-rule="evenodd" clip-rule="evenodd" d="M-134.153 459.376L-95.5837 497.945L-57.1612 459.522L-56.6555 460.028L-56.0033 459.376L-17.4343 497.945L20.9882 459.522L21.2654 459.8L21.6892 459.376L60.2581 497.945L98.6805 459.522L98.7293 459.571L98.9247 459.376L137.494 497.945L175.916 459.522L175.965 459.571L176.16 459.376L214.729 497.945L253.152 459.522L253.2 459.571L253.395 459.376L291.964 497.945L330.387 459.522L330.435 459.571L330.631 459.376L369.2 497.945L407.622 459.522L407.671 459.571L407.866 459.376L446.435 497.945L484.857 459.522L484.906 459.571L485.101 459.376L523.67 497.945L562.093 459.522L562.142 459.571L562.337 459.376L600.906 497.945L639.328 459.522L639.377 459.571L639.572 459.376L678.141 497.945L716.564 459.522L716.612 459.571L716.807 459.376L755.376 497.945L793.799 459.522L793.848 459.571L794.043 459.376L832.612 497.945L871.034 459.522L871.083 459.571L871.278 459.376L909.847 497.945L948.27 459.522L948.318 459.571L948.514 459.376L987.083 497.945L1025.51 459.522L1025.55 459.571L1025.75 459.376L1064.32 497.945L1102.74 459.522L1102.79 459.571L1102.98 459.376L1141.55 497.945L1179.98 459.522L1180.02 459.571L1180.22 459.376L1218.79 497.945L1257.21 459.522L1257.26 459.572L1257.46 459.376L1296.02 497.945L1334.45 459.522L1334.5 459.571L1334.69 459.376L1373.26 497.945L1411.68 459.522L1411.73 459.571L1411.93 459.376L1450.49 497.945L1488.92 459.522L1488.97 459.571L1489.16 459.376L1527.73 497.945L1566.15 459.522L1571 464.37L1527.7 507.673L1522.85 502.826L1522.88 502.792L1489.11 469.022L1450.46 507.673L1445.61 502.826L1445.65 502.792L1411.88 469.022L1373.23 507.673L1368.38 502.826L1368.41 502.792L1334.64 469.022L1295.99 507.673L1291.14 502.826L1291.18 502.792L1257.41 469.022L1218.76 507.673L1213.91 502.826L1213.94 502.792L1180.17 469.022L1141.52 507.673L1136.67 502.826L1136.71 502.792L1102.94 469.022L1064.28 507.673L1059.44 502.826L1059.47 502.792L1025.7 469.022L987.049 507.673L982.202 502.826L982.235 502.792L948.465 469.022L909.814 507.673L904.966 502.826L905 502.792L871.23 469.022L832.579 507.673L827.731 502.826L827.765 502.792L793.994 469.022L755.343 507.673L750.496 502.826L750.529 502.792L716.759 469.022L678.108 507.673L673.26 502.826L673.294 502.792L639.524 469.022L600.873 507.673L596.025 502.826L596.059 502.792L562.288 469.022L523.637 507.673L518.789 502.826L518.823 502.792L485.053 469.022L446.402 507.673L441.554 502.826L441.588 502.792L407.817 469.022L369.166 507.673L364.319 502.826L364.352 502.792L330.582 469.022L291.931 507.673L287.083 502.826L287.117 502.792L253.347 469.022L214.696 507.673L209.848 502.826L209.882 502.792L176.111 469.022L137.46 507.673L132.613 502.826L132.646 502.792L98.8758 469.022L60.2247 507.673L55.3773 502.826L55.4107 502.792L21.4119 468.793L-17.4676 507.673L-22.3149 502.826L-22.2816 502.792L-56.509 468.565L-95.617 507.673L-100.464 502.826L-100.431 502.792L-139 464.223L-134.153 459.376Z" fill="#459E79"/>
<path fill-rule="evenodd" clip-rule="evenodd" d="M-134.153 527.673L-95.5837 566.242L-57.1612 527.819L-56.6555 528.325L-56.0033 527.673L-17.4343 566.242L20.9882 527.819L21.2654 528.097L21.6892 527.673L60.2581 566.242L98.6805 527.819L98.7293 527.868L98.9247 527.673L137.494 566.242L175.916 527.819L175.965 527.868L176.16 527.673L214.729 566.242L253.152 527.819L253.2 527.868L253.395 527.673L291.964 566.242L330.387 527.819L330.435 527.868L330.631 527.673L369.2 566.242L407.622 527.819L407.671 527.868L407.866 527.673L446.435 566.242L484.857 527.819L484.906 527.868L485.101 527.673L523.67 566.242L562.093 527.819L562.142 527.868L562.337 527.673L600.906 566.242L639.328 527.819L639.377 527.868L639.572 527.673L678.141 566.242L716.564 527.819L716.612 527.868L716.807 527.673L755.376 566.242L793.799 527.819L793.848 527.868L794.043 527.673L832.612 566.242L871.034 527.819L871.083 527.868L871.278 527.673L909.847 566.242L948.27 527.819L948.318 527.868L948.514 527.673L987.083 566.242L1025.51 527.819L1025.55 527.868L1025.75 527.673L1064.32 566.242L1102.74 527.819L1102.79 527.868L1102.98 527.673L1141.55 566.242L1179.98 527.819L1180.02 527.868L1180.22 527.673L1218.79 566.242L1257.21 527.819L1257.26 527.869L1257.46 527.673L1296.02 566.242L1334.45 527.819L1334.5 527.868L1334.69 527.673L1373.26 566.242L1411.68 527.819L1411.73 527.868L1411.93 527.673L1450.49 566.242L1488.92 527.819L1488.97 527.868L1489.16 527.673L1527.73 566.242L1566.15 527.819L1571 532.667L1527.7 575.97L1522.85 571.123L1522.88 571.089L1489.11 537.319L1450.46 575.97L1445.61 571.123L1445.65 571.089L1411.88 537.319L1373.23 575.97L1368.38 571.123L1368.41 571.089L1334.64 537.319L1295.99 575.97L1291.14 571.123L1291.18 571.089L1257.41 537.319L1218.76 575.97L1213.91 571.123L1213.94 571.089L1180.17 537.319L1141.52 575.97L1136.67 571.123L1136.71 571.089L1102.94 537.319L1064.28 575.97L1059.44 571.123L1059.47 571.089L1025.7 537.319L987.049 575.97L982.202 571.123L982.235 571.089L948.465 537.319L909.814 575.97L904.966 571.123L905 571.089L871.23 537.319L832.579 575.97L827.731 571.123L827.765 571.089L793.994 537.319L755.343 575.97L750.496 571.123L750.529 571.089L716.759 537.319L678.108 575.97L673.26 571.123L673.294 571.089L639.524 537.319L600.873 575.97L596.025 571.123L596.059 571.089L562.288 537.319L523.637 575.97L518.789 571.123L518.823 571.089L485.053 537.319L446.402 575.97L441.554 571.123L441.588 571.089L407.817 537.319L369.166 575.97L364.319 571.123L364.352 571.089L330.582 537.319L291.931 575.97L287.083 571.123L287.117 571.089L253.347 537.319L214.696 575.97L209.848 571.123L209.882 571.089L176.111 537.319L137.46 575.97L132.613 571.123L132.646 571.089L98.8758 537.319L60.2247 575.97L55.3773 571.123L55.4107 571.089L21.4119 537.09L-17.4676 575.97L-22.3149 571.123L-22.2816 571.089L-56.509 536.862L-95.617 575.97L-100.464 571.123L-100.431 571.089L-139 532.52L-134.153 527.673Z" fill="#459E79"/>
<path fill-rule="evenodd" clip-rule="evenodd" d="M-134.153 595.97L-95.5837 634.539L-57.1612 596.116L-56.6555 596.622L-56.0033 595.97L-17.4343 634.539L20.9882 596.116L21.2654 596.394L21.6892 595.97L60.2581 634.539L98.6805 596.116L98.7293 596.165L98.9247 595.97L137.494 634.539L175.916 596.116L175.965 596.165L176.16 595.97L214.729 634.539L253.152 596.116L253.2 596.165L253.395 595.97L291.964 634.539L330.387 596.116L330.435 596.165L330.631 595.97L369.2 634.539L407.622 596.116L407.671 596.165L407.866 595.97L446.435 634.539L484.857 596.116L484.906 596.165L485.101 595.97L523.67 634.539L562.093 596.116L562.142 596.165L562.337 595.97L600.906 634.539L639.328 596.116L639.377 596.165L639.572 595.97L678.141 634.539L716.564 596.116L716.612 596.165L716.807 595.97L755.376 634.539L793.799 596.116L793.848 596.165L794.043 595.97L832.612 634.539L871.034 596.116L871.083 596.165L871.278 595.97L909.847 634.539L948.27 596.116L948.318 596.165L948.514 595.97L987.083 634.539L1025.51 596.116L1025.55 596.165L1025.75 595.97L1064.32 634.539L1102.74 596.116L1102.79 596.165L1102.98 595.97L1141.55 634.539L1179.98 596.116L1180.02 596.165L1180.22 595.97L1218.79 634.539L1257.21 596.116L1257.26 596.166L1257.46 595.97L1296.02 634.539L1334.45 596.116L1334.5 596.165L1334.69 595.97L1373.26 634.539L1411.68 596.116L1411.73 596.165L1411.93 595.97L1450.49 634.539L1488.92 596.116L1488.97 596.165L1489.16 595.97L1527.73 634.539L1566.15 596.116L1571 600.964L1527.7 644.267L1522.85 639.42L1522.88 639.386L1489.11 605.616L1450.46 644.267L1445.61 639.42L1445.65 639.386L1411.88 605.616L1373.23 644.267L1368.38 639.42L1368.41 639.386L1334.64 605.616L1295.99 644.267L1291.14 639.42L1291.18 639.386L1257.41 605.616L1218.76 644.267L1213.91 639.42L1213.94 639.386L1180.17 605.616L1141.52 644.267L1136.67 639.42L1136.71 639.386L1102.94 605.616L1064.28 644.267L1059.44 639.42L1059.47 639.386L1025.7 605.616L987.049 644.267L982.202 639.42L982.235 639.386L948.465 605.616L909.814 644.267L904.966 639.42L905 639.386L871.23 605.616L832.579 644.267L827.731 639.42L827.765 639.386L793.994 605.616L755.343 644.267L750.496 639.42L750.529 639.386L716.759 605.616L678.108 644.267L673.26 639.42L673.294 639.386L639.524 605.616L600.873 644.267L596.025 639.42L596.059 639.386L562.288 605.616L523.637 644.267L518.789 639.42L518.823 639.386L485.053 605.616L446.402 644.267L441.554 639.42L441.588 639.386L407.817 605.616L369.166 644.267L364.319 639.42L364.352 639.386L330.582 605.616L291.931 644.267L287.083 639.42L287.117 639.386L253.347 605.616L214.696 644.267L209.848 639.42L209.882 639.386L176.111 605.616L137.46 644.267L132.613 639.42L132.646 639.386L98.8758 605.616L60.2247 644.267L55.3773 639.42L55.4107 639.386L21.4119 605.387L-17.4676 644.267L-22.3149 639.42L-22.2816 639.386L-56.509 605.159L-95.617 644.267L-100.464 639.42L-100.431 639.386L-139 600.817L-134.153 595.97Z" fill="#459E79"/>
<path fill-rule="evenodd" clip-rule="evenodd" d="M-134.153 664.267L-95.5837 702.836L-57.1612 664.413L-56.6555 664.919L-56.0033 664.267L-17.4343 702.836L20.9882 664.413L21.2654 664.691L21.6892 664.267L60.2581 702.836L98.6805 664.413L98.7293 664.462L98.9247 664.267L137.494 702.836L175.916 664.413L175.965 664.462L176.16 664.267L214.729 702.836L253.152 664.413L253.2 664.462L253.395 664.267L291.964 702.836L330.387 664.413L330.435 664.462L330.631 664.267L369.2 702.836L407.622 664.413L407.671 664.462L407.866 664.267L446.435 702.836L484.857 664.413L484.906 664.462L485.101 664.267L523.67 702.836L562.093 664.413L562.142 664.462L562.337 664.267L600.906 702.836L639.328 664.413L639.377 664.462L639.572 664.267L678.141 702.836L716.564 664.413L716.612 664.462L716.807 664.267L755.376 702.836L793.799 664.413L793.848 664.462L794.043 664.267L832.612 702.836L871.034 664.413L871.083 664.462L871.278 664.267L909.847 702.836L948.27 664.413L948.318 664.462L948.514 664.267L987.083 702.836L1025.51 664.413L1025.55 664.462L1025.75 664.267L1064.32 702.836L1102.74 664.413L1102.79 664.462L1102.98 664.267L1141.55 702.836L1179.98 664.413L1180.02 664.462L1180.22 664.267L1218.79 702.836L1257.21 664.413L1257.26 664.463L1257.46 664.267L1296.02 702.836L1334.45 664.413L1334.5 664.462L1334.69 664.267L1373.26 702.836L1411.68 664.413L1411.73 664.462L1411.93 664.267L1450.49 702.836L1488.92 664.413L1488.97 664.462L1489.16 664.267L1527.73 702.836L1566.15 664.413L1571 669.261L1527.7 712.564L1522.85 707.717L1522.88 707.683L1489.11 673.913L1450.46 712.564L1445.61 707.717L1445.65 707.683L1411.88 673.913L1373.23 712.564L1368.38 707.717L1368.41 707.683L1334.64 673.913L1295.99 712.564L1291.14 707.717L1291.18 707.683L1257.41 673.913L1218.76 712.564L1213.91 707.717L1213.94 707.683L1180.17 673.913L1141.52 712.564L1136.67 707.717L1136.71 707.683L1102.94 673.913L1064.28 712.564L1059.44 707.717L1059.47 707.683L1025.7 673.913L987.049 712.564L982.202 707.717L982.235 707.683L948.465 673.913L909.814 712.564L904.966 707.717L905 707.683L871.23 673.913L832.579 712.564L827.731 707.717L827.765 707.683L793.994 673.913L755.343 712.564L750.496 707.717L750.529 707.683L716.759 673.913L678.108 712.564L673.26 707.717L673.294 707.683L639.524 673.913L600.873 712.564L596.025 707.717L596.059 707.683L562.288 673.913L523.637 712.564L518.789 707.717L518.823 707.683L485.053 673.913L446.402 712.564L441.554 707.717L441.588 707.683L407.817 673.913L369.166 712.564L364.319 707.717L364.352 707.683L330.582 673.913L291.931 712.564L287.083 707.717L287.117 707.683L253.347 673.913L214.696 712.564L209.848 707.717L209.882 707.683L176.111 673.913L137.46 712.564L132.613 707.717L132.646 707.683L98.8758 673.913L60.2247 712.564L55.3773 707.717L55.4107 707.683L21.4119 673.684L-17.4676 712.564L-22.3149 707.717L-22.2816 707.683L-56.509 673.456L-95.617 712.564L-100.464 707.717L-100.431 707.683L-139 669.114L-134.153 664.267Z" fill="#459E79"/>
<path fill-rule="evenodd" clip-rule="evenodd" d="M-134.153 732.564L-95.5837 771.133L-57.1612 732.71L-56.6555 733.216L-56.0033 732.564L-17.4343 771.133L20.9882 732.71L21.2654 732.988L21.6892 732.564L60.2581 771.133L98.6805 732.71L98.7293 732.759L98.9247 732.564L137.494 771.133L175.916 732.71L175.965 732.759L176.16 732.564L214.729 771.133L253.152 732.71L253.2 732.759L253.395 732.564L291.964 771.133L330.387 732.71L330.435 732.759L330.631 732.564L369.2 771.133L407.622 732.71L407.671 732.759L407.866 732.564L446.435 771.133L484.857 732.71L484.906 732.759L485.101 732.564L523.67 771.133L562.093 732.71L562.142 732.759L562.337 732.564L600.906 771.133L639.328 732.71L639.377 732.759L639.572 732.564L678.141 771.133L716.564 732.71L716.612 732.759L716.807 732.564L755.376 771.133L793.799 732.71L793.848 732.759L794.043 732.564L832.612 771.133L871.034 732.71L871.083 732.759L871.278 732.564L909.847 771.133L948.27 732.71L948.318 732.759L948.514 732.564L987.083 771.133L1025.51 732.71L1025.55 732.759L1025.75 732.564L1064.32 771.133L1102.74 732.71L1102.79 732.759L1102.98 732.564L1141.55 771.133L1179.98 732.71L1180.02 732.759L1180.22 732.564L1218.79 771.133L1257.21 732.71L1257.26 732.76L1257.46 732.564L1296.02 771.133L1334.45 732.71L1334.5 732.759L1334.69 732.564L1373.26 771.133L1411.68 732.71L1411.73 732.759L1411.93 732.564L1450.49 771.133L1488.92 732.71L1488.97 732.759L1489.16 732.564L1527.73 771.133L1566.15 732.71L1571 737.558L1527.7 780.861L1522.85 776.014L1522.88 775.98L1489.11 742.21L1450.46 780.861L1445.61 776.014L1445.65 775.98L1411.88 742.21L1373.23 780.861L1368.38 776.014L1368.41 775.98L1334.64 742.21L1295.99 780.861L1291.14 776.014L1291.18 775.98L1257.41 742.21L1218.76 780.861L1213.91 776.014L1213.94 775.98L1180.17 742.21L1141.52 780.861L1136.67 776.014L1136.71 775.98L1102.94 742.21L1064.28 780.861L1059.44 776.014L1059.47 775.98L1025.7 742.21L987.049 780.861L982.202 776.014L982.235 775.98L948.465 742.21L909.814 780.861L904.966 776.014L905 775.98L871.23 742.21L832.579 780.861L827.731 776.014L827.765 775.98L793.994 742.21L755.343 780.861L750.496 776.014L750.529 775.98L716.759 742.21L678.108 780.861L673.26 776.014L673.294 775.98L639.524 742.21L600.873 780.861L596.025 776.014L596.059 775.98L562.288 742.21L523.637 780.861L518.789 776.014L518.823 775.98L485.053 742.21L446.402 780.861L441.554 776.014L441.588 775.98L407.817 742.21L369.166 780.861L364.319 776.014L364.352 775.98L330.582 742.21L291.931 780.861L287.083 776.014L287.117 775.98L253.347 742.21L214.696 780.861L209.848 776.014L209.882 775.98L176.111 742.21L137.46 780.861L132.613 776.014L132.646 775.98L98.8758 742.21L60.2247 780.861L55.3773 776.014L55.4107 775.98L21.4119 741.981L-17.4676 780.861L-22.3149 776.014L-22.2816 775.98L-56.509 741.753L-95.617 780.861L-100.464 776.014L-100.431 775.98L-139 737.411L-134.153 732.564Z" fill="#459E79"/>
<path fill-rule="evenodd" clip-rule="evenodd" d="M-134.153 801L-95.5837 839.569L-57.1612 801.146L-56.6555 801.652L-56.0033 801L-17.4343 839.569L20.9882 801.146L21.2654 801.424L21.6892 801L60.2581 839.569L98.6805 801.146L98.7293 801.195L98.9247 801L137.494 839.569L175.916 801.146L175.965 801.195L176.16 801L214.729 839.569L253.152 801.146L253.2 801.195L253.395 801L291.964 839.569L330.387 801.146L330.435 801.195L330.631 801L369.2 839.569L407.622 801.146L407.671 801.195L407.866 801L446.435 839.569L484.857 801.146L484.906 801.195L485.101 801L523.67 839.569L562.093 801.146L562.142 801.195L562.337 801L600.906 839.569L639.328 801.146L639.377 801.195L639.572 801L678.141 839.569L716.564 801.146L716.612 801.195L716.807 801L755.376 839.569L793.799 801.146L793.848 801.195L794.043 801L832.612 839.569L871.034 801.146L871.083 801.195L871.278 801L909.847 839.569L948.27 801.146L948.318 801.195L948.514 801L987.083 839.569L1025.51 801.146L1025.55 801.195L1025.75 801L1064.32 839.569L1102.74 801.146L1102.79 801.195L1102.98 801L1141.55 839.569L1179.98 801.146L1180.02 801.195L1180.22 801L1218.79 839.569L1257.21 801.146L1257.26 801.196L1257.46 801L1296.02 839.569L1334.45 801.146L1334.5 801.195L1334.69 801L1373.26 839.569L1411.68 801.146L1411.73 801.195L1411.93 801L1450.49 839.569L1488.92 801.146L1488.97 801.195L1489.16 801L1527.73 839.569L1566.15 801.146L1571 805.994L1527.7 849.297L1522.85 844.45L1522.88 844.416L1489.11 810.646L1450.46 849.297L1445.61 844.45L1445.65 844.416L1411.88 810.646L1373.23 849.297L1368.38 844.45L1368.41 844.416L1334.64 810.646L1295.99 849.297L1291.14 844.45L1291.18 844.416L1257.41 810.646L1218.76 849.297L1213.91 844.45L1213.94 844.416L1180.17 810.646L1141.52 849.297L1136.67 844.45L1136.71 844.416L1102.94 810.646L1064.28 849.297L1059.44 844.45L1059.47 844.416L1025.7 810.646L987.049 849.297L982.202 844.45L982.235 844.416L948.465 810.646L909.814 849.297L904.966 844.45L905 844.416L871.23 810.646L832.579 849.297L827.731 844.45L827.765 844.416L793.994 810.646L755.343 849.297L750.496 844.45L750.529 844.416L716.759 810.646L678.108 849.297L673.26 844.45L673.294 844.416L639.524 810.646L600.873 849.297L596.025 844.45L596.059 844.416L562.288 810.646L523.637 849.297L518.789 844.45L518.823 844.416L485.053 810.646L446.402 849.297L441.554 844.45L441.588 844.416L407.817 810.646L369.166 849.297L364.319 844.45L364.352 844.416L330.582 810.646L291.931 849.297L287.083 844.45L287.117 844.416L253.347 810.646L214.696 849.297L209.848 844.45L209.882 844.416L176.111 810.646L137.46 849.297L132.613 844.45L132.646 844.416L98.8758 810.646L60.2247 849.297L55.3773 844.45L55.4107 844.416L21.4119 810.417L-17.4676 849.297L-22.3149 844.45L-22.2816 844.416L-56.509 810.189L-95.617 849.297L-100.464 844.45L-100.431 844.416L-139 805.847L-134.153 801Z" fill="#459E79"/>
<path fill-rule="evenodd" clip-rule="evenodd" d="M-134.153 869.436L-95.5837 908.005L-57.1612 869.583L-56.6555 870.088L-56.0033 869.436L-17.4343 908.005L20.9882 869.583L21.2654 869.86L21.6892 869.436L60.2581 908.005L98.6805 869.583L98.7293 869.631L98.9247 869.436L137.494 908.005L175.916 869.583L175.965 869.631L176.16 869.436L214.729 908.005L253.152 869.583L253.2 869.631L253.395 869.436L291.964 908.005L330.387 869.583L330.435 869.631L330.631 869.436L369.2 908.005L407.622 869.583L407.671 869.631L407.866 869.436L446.435 908.005L484.857 869.583L484.906 869.631L485.101 869.436L523.67 908.005L562.093 869.583L562.142 869.632L562.337 869.436L600.906 908.005L639.328 869.583L639.377 869.631L639.572 869.436L678.141 908.005L716.564 869.583L716.612 869.631L716.807 869.436L755.376 908.005L793.799 869.583L793.848 869.632L794.043 869.436L832.612 908.005L871.034 869.583L871.083 869.631L871.278 869.436L909.847 908.005L948.27 869.583L948.318 869.631L948.514 869.436L987.083 908.005L1025.51 869.583L1025.55 869.631L1025.75 869.436L1064.32 908.005L1102.74 869.583L1102.79 869.631L1102.98 869.436L1141.55 908.005L1179.98 869.583L1180.02 869.631L1180.22 869.436L1218.79 908.005L1257.21 869.583L1257.26 869.632L1257.46 869.436L1296.02 908.005L1334.45 869.583L1334.5 869.631L1334.69 869.436L1373.26 908.005L1411.68 869.583L1411.73 869.631L1411.93 869.436L1450.49 908.005L1488.92 869.583L1488.97 869.631L1489.16 869.436L1527.73 908.005L1566.15 869.583L1571 874.43L1527.7 917.733L1522.85 912.886L1522.88 912.852L1489.11 879.082L1450.46 917.733L1445.61 912.886L1445.65 912.852L1411.88 879.082L1373.23 917.733L1368.38 912.886L1368.41 912.852L1334.64 879.082L1295.99 917.733L1291.14 912.886L1291.18 912.852L1257.41 879.082L1218.76 917.733L1213.91 912.886L1213.94 912.852L1180.17 879.082L1141.52 917.733L1136.67 912.886L1136.71 912.852L1102.94 879.082L1064.28 917.733L1059.44 912.886L1059.47 912.852L1025.7 879.082L987.049 917.733L982.202 912.886L982.235 912.852L948.465 879.082L909.814 917.733L904.966 912.886L905 912.852L871.23 879.082L832.579 917.733L827.731 912.886L827.765 912.852L793.994 879.082L755.343 917.733L750.496 912.886L750.529 912.852L716.759 879.082L678.108 917.733L673.26 912.886L673.294 912.852L639.524 879.082L600.873 917.733L596.025 912.886L596.059 912.852L562.288 879.082L523.637 917.733L518.789 912.886L518.823 912.852L485.053 879.082L446.402 917.733L441.554 912.886L441.588 912.852L407.817 879.082L369.166 917.733L364.319 912.886L364.352 912.852L330.582 879.082L291.931 917.733L287.083 912.886L287.117 912.852L253.347 879.082L214.696 917.733L209.848 912.886L209.882 912.852L176.111 879.082L137.46 917.733L132.613 912.886L132.646 912.852L98.8758 879.082L60.2247 917.733L55.3773 912.886L55.4107 912.852L21.4119 878.854L-17.4676 917.733L-22.3149 912.886L-22.2816 912.852L-56.509 878.625L-95.617 917.733L-100.464 912.886L-100.431 912.852L-139 874.283L-134.153 869.436Z" fill="#459E79"/>
</g>
<defs>
<clipPath id="clip0_12_2935">
<rect width="1440" height="1024" fill="white" transform="translate(0 -62)"/>
</clipPath>
</defs>
</svg>
